<svg width="1500" height="1500" viewBox="0 0 1500 1500" fill="none" xmlns="http://www.w3.org/2000/svg">
<path d="M1157.17 1026.41H1200.13C1247.04 1026.41 1277.56 977.005 1256.58 935.019L1072.06 565.788C1048.8 519.247 982.413 519.247 959.154 565.788L937.676 608.765C928.792 626.543 928.792 647.467 937.676 665.245L952.488 694.884C968.146 726.216 955.429 764.261 924.026 779.752C854.853 813.873 735.024 873.058 635.777 922.467C604.57 938.003 591.966 975.917 607.555 1007.11L621.055 1034.12C636.644 1065.32 674.521 1077.98 705.748 1062.48C805.513 1012.97 926.189 953.882 995.339 920.093C1026.43 904.902 1063.83 917.674 1079.3 948.636L1100.72 991.499C1111.41 1012.89 1133.27 1026.41 1157.17 1026.41Z" fill="white"/>
<path d="M708.501 372.742L269.72 1250.75C248.737 1292.74 279.253 1342.14 326.171 1342.14H1187.75C1228.27 1342.14 1254.63 1299.47 1236.5 1263.2C1218.38 1226.94 1244.74 1184.27 1285.26 1184.27H1342.13C1366.04 1184.27 1387.89 1197.78 1398.58 1219.18L1493.26 1408.61C1514.24 1450.6 1483.72 1500 1436.8 1500H63.1954C16.2776 1500 -14.2377 1450.6 6.74456 1408.61L693.251 34.9062C716.565 -11.7449 783.154 -11.6048 806.271 35.1441L909.643 244.187C918.411 261.918 918.367 282.735 909.525 300.429L873.021 373.473C856.028 407.477 807.452 407.261 790.761 373.108C774.07 338.954 725.494 338.738 708.501 372.742Z" fill="white"/>
</svg>
